<svg xmlns="http://www.w3.org/2000/svg" version="1.1" xmlns:xlink="http://www.w3.org/1999/xlink" width="512" height="512"><svg version="1.1" id="SvgjsSvg1001" xmlns="http://www.w3.org/2000/svg" xmlns:xlink="http://www.w3.org/1999/xlink" viewBox="0 0 512 512" xml:space="preserve">
<path style="fill:#74C8EE;" d="M233.595,302.276l-20.181,76.626L111.397,496.086L127.31,512c0,0,60.327-60.327,95.483-95.483
	C253.868,385.442,257.454,337.312,233.595,302.276z"></path>
<path style="fill:#AEE6FF;" d="M320.751,215.121l-3.978-19.893l-19.893-3.979l-87.156,87.156
	c-35.037-23.859-83.167-20.273-114.241,10.802C60.327,324.362,0,384.69,0,384.69l111.397,111.397c0,0,60.327-60.327,95.483-95.483
	c31.074-31.074,41.514-72.352,26.715-98.328L320.751,215.121z M63.655,393.129c-2.159,0-4.32-0.824-5.968-2.471
	c-3.296-3.297-3.296-8.64,0-11.936l63.656-63.656c3.297-3.295,8.64-3.295,11.936,0c3.296,3.297,3.296,8.64,0,11.936l-63.656,63.656
	C67.974,392.305,65.814,393.129,63.655,393.129z M101.45,422.485c-1.649,1.647-3.809,2.471-5.968,2.471s-4.32-0.824-5.968-2.471
	c-3.296-3.297-3.296-8.64,0-11.936l63.656-63.656c3.297-3.295,8.64-3.295,11.936,0c3.296,3.297,3.296,8.64,0,11.936L101.45,422.485z
	 M196.934,390.658l-63.655,63.655c-1.649,1.647-3.809,2.471-5.968,2.471s-4.32-0.824-5.968-2.471c-3.296-3.297-3.296-8.64,0-11.936
	l63.655-63.655c3.297-3.295,8.64-3.295,11.936,0C200.23,382.018,200.23,387.361,196.934,390.658z"></path>
<rect x="294.804" y="152.487" transform="matrix(-0.7071 0.7071 -0.7071 -0.7071 704.6615 46.851)" style="fill:#74C8EE;" width="95.647" height="33.758"></rect>
<rect x="327.738" y="139.255" transform="matrix(-0.7071 0.7071 -0.7071 -0.7071 706.6581 42.0652)" style="fill:#D1F1FF;" width="33.758" height="56.263"></rect>
<path style="fill:#A65A3A;" d="M360.535,159.422L503.759,8.241c10.988,10.988,10.988,28.796,0,39.784l-127.31,127.31
	L360.535,159.422z"></path>
<path style="fill:#D3754F;" d="M360.535,159.422l127.31-127.31c10.988-10.988,18.11-21.675,15.914-23.87
	c-10.988-10.988-28.796-10.988-39.784,0l-127.31,127.31L360.535,159.422z"></path>
</svg><style>@media (prefers-color-scheme: light) { :root { filter: none; } }
@media (prefers-color-scheme: dark) { :root { filter: none; } }
</style></svg>